# xmcd CD database file
#
# Track frame offsets:
#	150
#	12730
#	27621
#	42848
#	56035
#	70818
#	84176
#	108932
#	127546
#	141506
#	156479
#	171637
#	187145
#	200339
#	216080
#
# Disc length: 3194 seconds
#
# Revision: 1
# Processed by: cddbd v1.5.2PL0 Copyright (c) Steve Scherf et al.
# Submitted via: CDex 1.60beta1
#
DISCID=df0c780f
DTITLE=Slawek Wierzcholski i Nocna Zmiana Bluesa - Harmonijkowy As
DYEAR=2006
DGENRE=Blues
TTITLE0=Swingowy bal
TTITLE1=Wiosenny deszcz
TTITLE2=Chodz, chodz
TTITLE3=Fart
TTITLE4=Kule
TTITLE5=Kapitulacja
TTITLE6=Blues w sile wieku
TTITLE7=Bliski cel
TTITLE8=Harmonijkowy As
TTITLE9=Mój toast
TTITLE10=Bulterier
TTITLE11=Regula
TTITLE12=Taki jak nikt
TTITLE13=Niezwykla gwiazda
TTITLE14=Co to jest blues
EXTD=YEAR: 2006
EXTT0=
EXTT1=
EXTT2=
EXTT3=
EXTT4=
EXTT5=
EXTT6=
EXTT7=
EXTT8=
EXTT9=
EXTT10=
EXTT11=
EXTT12=
EXTT13=
EXTT14=
PLAYORDER=
